# xmcd CD database file
#
# Track frame offsets:
#	150
#	22527
#	41497
#	61937
#	80660
#	105242
#	125920
#	145912
#
# Disc length: 2206 seconds
#
# Revision: 0
# Processed by: cddbd v1.5.1PL0 Copyright (c) Steve Scherf et al.
# Submitted via: CDex 1.51
#
DISCID=5f089c08
DTITLE=チャゲ＆飛鳥 - オルゴール・コレクション
DYEAR=1900
DGENRE=Instrumental
TTITLE0=Say Yes
TTITLE1=はじまりはいつも雨
TTITLE2=Moon Light Blues
TTITLE3=モーニングムーン
TTITLE4=ひとり咲き
TTITLE5=恋人はワイン色
TTITLE6=太陽と埃の中で
TTITLE7=男と女
EXTD=
EXTT0=
EXTT1=
EXTT2=
EXTT3=
EXTT4=
EXTT5=
EXTT6=
EXTT7=
PLAYORDER=
